<svg id="visual" viewBox="0 0 960 540" width="960" height="540" xmlns="http://www.w3.org/2000/svg" xmlns:xlink="http://www.w3.org/1999/xlink" version="1.1"><rect x="0" y="0" width="960" height="540" fill="#001220"></rect><path d="M0 387L12.3 387.5C24.7 388 49.3 389 74 394C98.7 399 123.3 408 148 409.5C172.7 411 197.3 405 221.8 405C246.3 405 270.7 411 295.2 410.2C319.7 409.3 344.3 401.7 369 393C393.7 384.3 418.3 374.7 443 378.3C467.7 382 492.3 399 517 410.2C541.7 421.3 566.3 426.7 591 422.3C615.7 418 640.3 404 664.8 394.5C689.3 385 713.7 380 738.2 389.2C762.7 398.3 787.3 421.7 812 424.7C836.7 427.7 861.3 410.3 886 397.5C910.7 384.7 935.3 376.3 947.7 372.2L960 368L960 541L947.7 541C935.3 541 910.7 541 886 541C861.3 541 836.7 541 812 541C787.3 541 762.7 541 738.2 541C713.7 541 689.3 541 664.8 541C640.3 541 615.7 541 591 541C566.3 541 541.7 541 517 541C492.3 541 467.7 541 443 541C418.3 541 393.7 541 369 541C344.3 541 319.7 541 295.2 541C270.7 541 246.3 541 221.8 541C197.3 541 172.7 541 148 541C123.3 541 98.7 541 74 541C49.3 541 24.7 541 12.3 541L0 541Z" fill="#fa7268"></path><path d="M0 408L12.3 408.8C24.7 409.7 49.3 411.3 74 416.5C98.7 421.7 123.3 430.3 148 429C172.7 427.7 197.3 416.3 221.8 419.7C246.3 423 270.7 441 295.2 444C319.7 447 344.3 435 369 423C393.7 411 418.3 399 443 400.7C467.7 402.3 492.3 417.7 517 418.2C541.7 418.7 566.3 404.3 591 398.3C615.7 392.3 640.3 394.7 664.8 406.5C689.3 418.3 713.7 439.7 738.2 441C762.7 442.3 787.3 423.7 812 414.3C836.7 405 861.3 405 886 408.2C910.7 411.3 935.3 417.7 947.7 420.8L960 424L960 541L947.7 541C935.3 541 910.7 541 886 541C861.3 541 836.7 541 812 541C787.3 541 762.7 541 738.2 541C713.7 541 689.3 541 664.8 541C640.3 541 615.7 541 591 541C566.3 541 541.7 541 517 541C492.3 541 467.7 541 443 541C418.3 541 393.7 541 369 541C344.3 541 319.7 541 295.2 541C270.7 541 246.3 541 221.8 541C197.3 541 172.7 541 148 541C123.3 541 98.7 541 74 541C49.3 541 24.7 541 12.3 541L0 541Z" fill="#f16367"></path><path d="M0 450L12.3 445.2C24.7 440.3 49.3 430.7 74 431.2C98.7 431.7 123.3 442.3 148 449.5C172.7 456.7 197.3 460.3 221.8 460C246.3 459.7 270.7 455.3 295.2 448.5C319.7 441.7 344.3 432.3 369 427.2C393.7 422 418.3 421 443 423.8C467.7 426.7 492.3 433.3 517 433.2C541.7 433 566.3 426 591 431C615.7 436 640.3 453 664.8 461.5C689.3 470 713.7 470 738.2 461.5C762.7 453 787.3 436 812 435.8C836.7 435.7 861.3 452.3 886 451.8C910.7 451.3 935.3 433.7 947.7 424.8L960 416L960 541L947.7 541C935.3 541 910.7 541 886 541C861.3 541 836.7 541 812 541C787.3 541 762.7 541 738.2 541C713.7 541 689.3 541 664.8 541C640.3 541 615.7 541 591 541C566.3 541 541.7 541 517 541C492.3 541 467.7 541 443 541C418.3 541 393.7 541 369 541C344.3 541 319.7 541 295.2 541C270.7 541 246.3 541 221.8 541C197.3 541 172.7 541 148 541C123.3 541 98.7 541 74 541C49.3 541 24.7 541 12.3 541L0 541Z" fill="#e85467"></path><path d="M0 454L12.3 453.2C24.7 452.3 49.3 450.7 74 456.2C98.7 461.7 123.3 474.3 148 476.8C172.7 479.3 197.3 471.7 221.8 463.2C246.3 454.7 270.7 445.3 295.2 448.3C319.7 451.3 344.3 466.7 369 474.5C393.7 482.3 418.3 482.7 443 479.7C467.7 476.7 492.3 470.3 517 465.8C541.7 461.3 566.3 458.7 591 461.2C615.7 463.7 640.3 471.3 664.8 476C689.3 480.7 713.7 482.3 738.2 483.3C762.7 484.3 787.3 484.7 812 485.5C836.7 486.3 861.3 487.7 886 489C910.7 490.3 935.3 491.7 947.7 492.3L960 493L960 541L947.7 541C935.3 541 910.7 541 886 541C861.3 541 836.7 541 812 541C787.3 541 762.7 541 738.2 541C713.7 541 689.3 541 664.8 541C640.3 541 615.7 541 591 541C566.3 541 541.7 541 517 541C492.3 541 467.7 541 443 541C418.3 541 393.7 541 369 541C344.3 541 319.7 541 295.2 541C270.7 541 246.3 541 221.8 541C197.3 541 172.7 541 148 541C123.3 541 98.7 541 74 541C49.3 541 24.7 541 12.3 541L0 541Z" fill="#de4467"></path><path d="M0 486L12.3 483.7C24.7 481.3 49.3 476.7 74 475.7C98.7 474.7 123.3 477.3 148 477C172.7 476.7 197.3 473.3 221.8 475.7C246.3 478 270.7 486 295.2 491.8C319.7 497.7 344.3 501.3 369 500.2C393.7 499 418.3 493 443 486.7C467.7 480.3 492.3 473.7 517 470.3C541.7 467 566.3 467 591 471.2C615.7 475.3 640.3 483.7 664.8 488.3C689.3 493 713.7 494 738.2 491C762.7 488 787.3 481 812 476.8C836.7 472.7 861.3 471.3 886 475C910.7 478.7 935.3 487.3 947.7 491.7L960 496L960 541L947.7 541C935.3 541 910.7 541 886 541C861.3 541 836.7 541 812 541C787.3 541 762.7 541 738.2 541C713.7 541 689.3 541 664.8 541C640.3 541 615.7 541 591 541C566.3 541 541.7 541 517 541C492.3 541 467.7 541 443 541C418.3 541 393.7 541 369 541C344.3 541 319.7 541 295.2 541C270.7 541 246.3 541 221.8 541C197.3 541 172.7 541 148 541C123.3 541 98.7 541 74 541C49.3 541 24.7 541 12.3 541L0 541Z" fill="#d23467"></path><path d="M0 507L12.3 509.2C24.7 511.3 49.3 515.7 74 513.5C98.7 511.3 123.3 502.7 148 501.8C172.7 501 197.3 508 221.8 507.8C246.3 507.7 270.7 500.3 295.2 499.5C319.7 498.7 344.3 504.3 369 509.3C393.7 514.3 418.3 518.7 443 521.3C467.7 524 492.3 525 517 520C541.7 515 566.3 504 591 500.5C615.7 497 640.3 501 664.8 500.7C689.3 500.3 713.7 495.7 738.2 495.8C762.7 496 787.3 501 812 503.3C836.7 505.7 861.3 505.3 886 507C910.7 508.7 935.3 512.3 947.7 514.2L960 516L960 541L947.7 541C935.3 541 910.7 541 886 541C861.3 541 836.7 541 812 541C787.3 541 762.7 541 738.2 541C713.7 541 689.3 541 664.8 541C640.3 541 615.7 541 591 541C566.3 541 541.7 541 517 541C492.3 541 467.7 541 443 541C418.3 541 393.7 541 369 541C344.3 541 319.7 541 295.2 541C270.7 541 246.3 541 221.8 541C197.3 541 172.7 541 148 541C123.3 541 98.7 541 74 541C49.3 541 24.7 541 12.3 541L0 541Z" fill="#c62368"></path></svg>